# xmcd CD database file
#
# Track frame offsets:
#	150
#	19041
#	30822
#	44919
#	60848
#	73003
#	85439
#	98668
#	120680
#	130960
#	149187
#	160543
#	173441
#	189493
#	202665
#	210516
#	223424
#	235764
#	250076
#
# Disc length: 3530 seconds
#
# Revision: 0
# Processed by: cddbd v1.5.2PL0 Copyright (c) Steve Scherf et al.
# Submitted via: CDex 1.85
#
DISCID=050dc813
DTITLE=Frankie Vaughan - Reflections
DYEAR=2006
DGENRE=Jazz
TTITLE0=Give me the moonlight
TTITLE1=Love and marriage
TTITLE2=Incurable romantic
TTITLE3=Young at heart
TTITLE4=Kisses sweeter than wine
TTITLE5=I'm shy Mary Ellen I'm shy
TTITLE6=Mona Lisa
TTITLE7=Oh you beautiful doll
TTITLE8=It takes a woman
TTITLE9=The sunshine of your smile
TTITLE10=If I had my way
TTITLE11=There's no business like show business
TTITLE12=Cabaret
TTITLE13=42nd street
TTITLE14=Give my regards to Broadway
TTITLE15=Lullaby of Broadway
TTITLE16=The way we were
TTITLE17=Ring-a-ring-a roses
TTITLE18=The party's over
EXTD=YEAR: 2006
EXTT0=
EXTT1=
EXTT2=
EXTT3=
EXTT4=
EXTT5=
EXTT6=
EXTT7=
EXTT8=
EXTT9=
EXTT10=
EXTT11=
EXTT12=
EXTT13=
EXTT14=
EXTT15=
EXTT16=
EXTT17=
EXTT18=
PLAYORDER=
